<?xml version="1.0" encoding="UTF-8" standalone="no"?>
<svg xmlns="http://www.w3.org/2000/svg" width="800" height="450" viewBox="0 0 800 450">
  <!-- Background -->
  <rect x="0" y="0" width="800" height="450" fill="#F8FAFC" />
  
  <!-- Header -->
  <rect x="0" y="0" width="800" height="60" fill="#1D4ED8" />
  <text x="30" y="38" font-family="Arial" font-size="20" font-weight="bold" fill="white">RetailSync AI</text>
  <circle cx="750" cy="30" r="20" fill="#27AE60" />
  <text x="750" y="36" font-family="Arial" font-size="14" font-weight="bold" fill="white" text-anchor="middle">SP</text>
  
  <!-- Main Content -->
  <rect x="20" y="80" width="760" height="350" rx="5" ry="5" fill="white" stroke="#E2E8F0" stroke-width="1" />
  
  <!-- Title -->
  <text x="40" y="110" font-family="Arial" font-size="22" font-weight="bold" fill="#1E293B">Sukanya Patnaik's Inventory Dashboard</text>
  
  <!-- Status Overview -->
  <rect x="40" y="130" width="760" height="80" fill="white" />
  
  <!-- Status cards -->
  <rect x="40" y="130" width="170" height="70" rx="4" ry="4" fill="#EFF6FF" stroke="#BFDBFE" stroke-width="1" />
  <text x="55" y="155" font-family="Arial" font-size="14" fill="#1E40AF">Stock Health</text>
  <text x="55" y="180" font-family="Arial" font-size="24" font-weight="bold" fill="#2563EB">85%</text>
  
  <rect x="230" y="130" width="170" height="70" rx="4" ry="4" fill="#ECFDF5" stroke="#A7F3D0" stroke-width="1" />
  <text x="245" y="155" font-family="Arial" font-size="14" fill="#065F46">Orders</text>
  <text x="245" y="180" font-family="Arial" font-size="24" font-weight="bold" fill="#059669">57</text>
  
  <rect x="420" y="130" width="170" height="70" rx="4" ry="4" fill="#FEF2F2" stroke="#FECACA" stroke-width="1" />
  <text x="435" y="155" font-family="Arial" font-size="14" fill="#991B1B">Stockout Risk</text>
  <text x="435" y="180" font-family="Arial" font-size="24" font-weight="bold" fill="#DC2626">12</text>
  
  <rect x="610" y="130" width="170" height="70" rx="4" ry="4" fill="#FFF7ED" stroke="#FDBA74" stroke-width="1" />
  <text x="625" y="155" font-family="Arial" font-size="14" fill="#9A3412">Pending Deliveries</text>
  <text x="625" y="180" font-family="Arial" font-size="24" font-weight="bold" fill="#EA580C">24</text>
  
  <!-- Charts -->
  <rect x="40" y="220" width="370" height="200" rx="4" ry="4" fill="white" stroke="#E2E8F0" stroke-width="1" />
  <text x="60" y="245" font-family="Arial" font-size="16" font-weight="bold" fill="#1E293B">Demand Forecast</text>
  
  <!-- Line Chart -->
  <polyline points="60,360 90,320 120,340 150,300 180,310 210,275 240,290 270,260 300,240 330,250 360,220" 
            fill="none" stroke="#3B82F6" stroke-width="3" />
  <circle cx="60" cy="360" r="4" fill="#3B82F6" />
  <circle cx="90" cy="320" r="4" fill="#3B82F6" />
  <circle cx="120" cy="340" r="4" fill="#3B82F6" />
  <circle cx="150" cy="300" r="4" fill="#3B82F6" />
  <circle cx="180" cy="310" r="4" fill="#3B82F6" />
  <circle cx="210" cy="275" r="4" fill="#3B82F6" />
  <circle cx="240" cy="290" r="4" fill="#3B82F6" />
  <circle cx="270" cy="260" r="4" fill="#3B82F6" />
  <circle cx="300" cy="240" r="4" fill="#3B82F6" />
  <circle cx="330" cy="250" r="4" fill="#3B82F6" />
  <circle cx="360" cy="220" r="4" fill="#3B82F6" />
  
  <!-- Agent Activities -->
  <rect x="430" y="220" width="350" height="200" rx="4" ry="4" fill="white" stroke="#E2E8F0" stroke-width="1" />
  <text x="450" y="245" font-family="Arial" font-size="16" font-weight="bold" fill="#1E293B">Agent Activities</text>
  
  <!-- Activity List -->
  <rect x="450" y="260" width="310" height="40" rx="2" ry="2" fill="#F8FAFC" />
  <circle cx="470" cy="280" r="10" fill="#2563EB" />
  <text x="490" y="285" font-family="Arial" font-size="14" fill="#1E293B">Forecast agent updated demand predictions</text>
  
  <rect x="450" y="310" width="310" height="40" rx="2" ry="2" fill="#F8FAFC" />
  <circle cx="470" cy="330" r="10" fill="#DC2626" />
  <text x="490" y="335" font-family="Arial" font-size="14" fill="#1E293B">Price optimization for 5 products</text>
  
  <rect x="450" y="360" width="310" height="40" rx="2" ry="2" fill="#F8FAFC" />
  <circle cx="470" cy="380" r="10" fill="#059669" />
  <text x="490" y="385" font-family="Arial" font-size="14" fill="#1E293B">Inventory agent detected potential stockout</text>
</svg>