<?xml version="1.0" encoding="UTF-8" standalone="no"?>
<svg xmlns="http://www.w3.org/2000/svg" width="200" height="200" viewBox="0 0 200 200">
  <!-- Background circle -->
  <circle cx="100" cy="100" r="90" fill="#3B82F6" />
  
  <!-- Inner circle -->
  <circle cx="100" cy="100" r="75" fill="#1D4ED8" />
  
  <!-- Sync arrows -->
  <path d="M70,65 C80,45 120,45 130,65 L145,50 L145,80 L115,80 L130,65 C125,55 100,55 95,65 L70,65" fill="#FFFFFF" />
  <path d="M130,135 C120,155 80,155 70,135 L55,150 L55,120 L85,120 L70,135 C75,145 100,145 105,135 L130,135" fill="#FFFFFF" />
  
  <!-- AI nodes -->
  <circle cx="70" cy="100" r="15" fill="#10B981" />
  <circle cx="100" cy="70" r="15" fill="#F59E0B" />
  <circle cx="130" cy="100" r="15" fill="#EF4444" />
  <circle cx="100" cy="130" r="15" fill="#8B5CF6" />
  
  <!-- Connecting lines -->
  <line x1="80" y1="80" x2="90" y2="75" stroke="#FFFFFF" stroke-width="3" />
  <line x1="110" y1="75" x2="120" y2="80" stroke="#FFFFFF" stroke-width="3" />
  <line x1="120" y1="110" x2="110" y2="120" stroke="#FFFFFF" stroke-width="3" />
  <line x1="90" y1="120" x2="80" y2="110" stroke="#FFFFFF" stroke-width="3" />
  
  <!-- Text for nodes -->
  <text x="70" y="104" font-family="Arial" font-size="14" font-weight="bold" fill="white" text-anchor="middle">I</text>
  <text x="100" y="74" font-family="Arial" font-size="14" font-weight="bold" fill="white" text-anchor="middle">F</text>
  <text x="130" y="104" font-family="Arial" font-size="14" font-weight="bold" fill="white" text-anchor="middle">P</text>
  <text x="100" y="134" font-family="Arial" font-size="14" font-weight="bold" fill="white" text-anchor="middle">S</text>
</svg>